<svg id="logo" xmlns="http://www.w3.org/2000/svg" xmlns:xlink="http://www.w3.org/1999/xlink" viewBox="0 0 488.84 141.73"><defs><style>.cls-1{fill:#55cbe1}.cls-2{fill:#68dcb5}.cls-3{fill:url(#名称未設定グラデーション_66)}.cls-4{fill:url(#名称未設定グラデーション_33)}.cls-5{fill:url(#名称未設定グラデーション_94)}.cls-6{fill:url(#名称未設定グラデーション_70)}.cls-7{fill:url(#名称未設定グラデーション_72)}.cls-8{fill:url(#名称未設定グラデーション_82)}.cls-9{fill:url(#名称未設定グラデーション_92)}.cls-10{fill:url(#名称未設定グラデーション_90)}.cls-11{fill:url(#名称未設定グラデーション_24)}.cls-12{fill:url(#名称未設定グラデーション_84)}.cls-13{fill:url(#名称未設定グラデーション_6)}.cls-14{fill:url(#名称未設定グラデーション_95)}.cls-15{fill:url(#名称未設定グラデーション_66-2)}.cls-16{fill:url(#名称未設定グラデーション_66-3)}.cls-17{fill:url(#名称未設定グラデーション_66-4)}.cls-18{fill:url(#名称未設定グラデーション_66-5)}.cls-19{fill:url(#名称未設定グラデーション_66-6)}.cls-20{fill:url(#名称未設定グラデーション_66-7)}</style><linearGradient id="名称未設定グラデーション_66" y1="70.87" x2="141.73" y2="70.87" gradientUnits="userSpaceOnUse"><stop offset=".2" stop-color="#55cbe1"/><stop offset=".8" stop-color="#68dcb5"/></linearGradient><linearGradient id="名称未設定グラデーション_33" x1="57.6" y1="51.46" x2="69.04" y2="94.12" gradientUnits="userSpaceOnUse"><stop offset="0" stop-color="#55cbe1"/><stop offset=".58" stop-color="#58ceda"/><stop offset="1" stop-color="#5cd1d1"/></linearGradient><linearGradient id="名称未設定グラデーション_94" x1="80.03" y1="92.71" x2="90.56" y2="96.97" gradientUnits="userSpaceOnUse"><stop offset=".05" stop-color="#5dd3ce"/><stop offset="1" stop-color="#60d5c8"/></linearGradient><linearGradient id="名称未設定グラデーション_70" x1="92.12" y1="96.42" x2="109.02" y2="96.42" gradientUnits="userSpaceOnUse"><stop offset="0" stop-color="#61d6c5"/><stop offset="1" stop-color="#67dbb8"/></linearGradient><linearGradient id="名称未設定グラデーション_72" x1="96.69" y1="64.18" x2="104.19" y2="92.18" gradientUnits="userSpaceOnUse"><stop offset="0" stop-color="#68dcb5"/><stop offset="1" stop-color="#67dbb8"/></linearGradient><linearGradient id="名称未設定グラデーション_82" x1="51.24" y1="53.82" x2="64.97" y2="105.08" gradientUnits="userSpaceOnUse"><stop offset="0" stop-color="#55cbe1"/><stop offset=".63" stop-color="#56ccdf"/><stop offset=".86" stop-color="#59ced8"/><stop offset="1" stop-color="#5dd2cf"/></linearGradient><linearGradient id="名称未設定グラデーション_92" x1="78.57" y1="111.31" x2="97.09" y2="91.44" gradientUnits="userSpaceOnUse"><stop offset=".09" stop-color="#61d5c6"/><stop offset="1" stop-color="#67dbb6"/></linearGradient><linearGradient id="名称未設定グラデーション_90" x1="67.94" y1="105.46" x2="81.15" y2="107.79" gradientUnits="userSpaceOnUse"><stop offset=".07" stop-color="#5fd3cb"/><stop offset="1" stop-color="#61d5c6"/></linearGradient><linearGradient id="名称未設定グラデーション_24" x1="89.42" y1="79.03" x2="96.52" y2="79.03" gradientUnits="userSpaceOnUse"><stop offset="0" stop-color="#67dbb6"/><stop offset="1" stop-color="#68dcb5"/></linearGradient><linearGradient id="名称未設定グラデーション_84" x1="45.25" y1="78.28" x2="54.24" y2="111.85" gradientUnits="userSpaceOnUse"><stop offset=".08" stop-color="#56ccdf"/><stop offset="1" stop-color="#60d5c8"/></linearGradient><linearGradient id="名称未設定グラデーション_6" x1="44.69" y1="82.14" x2="44.69" y2="53.99" gradientUnits="userSpaceOnUse"><stop offset="0" stop-color="#56ccdf"/><stop offset="1" stop-color="#55cbe1"/></linearGradient><linearGradient id="名称未設定グラデーション_95" x1="57.29" y1="88.13" x2="92.87" y2="88.13" gradientUnits="userSpaceOnUse"><stop offset=".05" stop-color="#60d5c8"/><stop offset="1" stop-color="#68dcb5"/></linearGradient><linearGradient id="名称未設定グラデーション_66-2" x1="219.28" y1="75.65" x2="439.6" y2="75.65" xlink:href="#名称未設定グラデーション_66"/><linearGradient id="名称未設定グラデーション_66-3" x1="219.28" y1="80.79" x2="439.6" y2="80.79" xlink:href="#名称未設定グラデーション_66"/><linearGradient id="名称未設定グラデーション_66-4" x1="219.28" y1="70.47" x2="439.6" y2="70.47" xlink:href="#名称未設定グラデーション_66"/><linearGradient id="名称未設定グラデーション_66-5" x1="219.28" y1="89.56" x2="439.6" y2="89.56" xlink:href="#名称未設定グラデーション_66"/><linearGradient id="名称未設定グラデーション_66-6" x1="219.28" y1="81.57" x2="439.6" y2="81.57" xlink:href="#名称未設定グラデーション_66"/><linearGradient id="名称未設定グラデーション_66-7" x1="219.28" y1="81.52" x2="439.6" y2="81.52" xlink:href="#名称未設定グラデーション_66"/></defs><title>unipos-logo</title><path class="cls-1" d="M46.73 58.2a10.34 10.34 0 1 1 10.34-10.34A10.35 10.35 0 0 1 46.73 58.2zm0-15.44a5.1 5.1 0 1 0 5.1 5.1 5.11 5.11 0 0 0-5.1-5.1z"/><path class="cls-2" d="M91.84 69.67a10.34 10.34 0 1 1 10.34-10.34 10.35 10.35 0 0 1-10.34 10.34zm0-15.44a5.1 5.1 0 1 0 5.1 5.1 5.1 5.1 0 0 0-5.1-5.1z"/><path class="cls-3" d="M70.87 141.73a70.83 70.83 0 0 1-50.11-121 70.87 70.87 0 1 1 77.69 115.4 70.36 70.36 0 0 1-27.58 5.6zM70.87 7A63.88 63.88 0 0 0 25.7 116 63.88 63.88 0 0 0 116 25.7 63.46 63.46 0 0 0 70.87 7z"/><path class="cls-4" d="M71.18 79.11Q67.4 75 63.87 70.67l-.85-1c-.57-.71-1.42-1.77-2.53-3.2S58 63.19 56.38 61c-.8-1.1-1.67-2.29-2.58-3.58-.46-.65-.93-1.32-1.41-2s-1-1.43-1.47-2.15l-1.09.73-1.1.72-1.09.72-1.09.72c.53.8 1 1.53 1.53 2.25l1.44 2.07q1.41 2 2.64 3.65a249.752 249.752 0 0 0 6.78 8.81l.88 1.06q3.61 4.44 7.51 8.69c2.6 2.82 5.32 5.55 8.2 8.15.45.4.92.8 1.38 1.19 1.42-1.3 2.63-4.64 2.63-4.64l-.54-.47c-2.69-2.45-5.3-5.08-7.82-7.81z"/><path class="cls-5" d="M84.9 98a34.82 34.82 0 0 0 4.33 2.27l1.69-5a30.6 30.6 0 0 1-3.28-1.76c-1.34-.82-2.64-1.73-3.91-2.69h-.07l-1.46-1-2.66 4.17L81 95.34c1.27.93 2.55 1.82 3.9 2.66z"/><path class="cls-6" d="M108.87 92.67a13.47 13.47 0 0 0 .15-1.88h-5.24a9.44 9.44 0 0 1-.09 1.08 6.09 6.09 0 0 1-.27 1.08 5.27 5.27 0 0 1-.46.92 4.94 4.94 0 0 1-.66.79 8 8 0 0 1-2.5 1.63 7.47 7.47 0 0 1-2.93.51 12.14 12.14 0 0 1-1.56-.16l-1.16-.24-2 4.85 1.48.4.67.13c.27 0 .55.08.83.12h1.7a12.83 12.83 0 0 0 4.92-.88 13.16 13.16 0 0 0 4.18-2.71 9.78 9.78 0 0 0 1.42-1.71 10.3 10.3 0 0 0 1-2 11.34 11.34 0 0 0 .52-1.93z"/><path class="cls-7" d="M109 90.74a21.46 21.46 0 0 0-1.3-6.81s0-.12-.13-.35-.21-.59-.39-1c-.37-.92-.94-2.27-1.83-4a67 67 0 0 0-3.62-6.15c-.78-1.19-1.65-2.45-2.63-3.78-.49-.66-1-1.34-1.54-2l-.84-1.06-.42-.59-.47-.57-1 .85-1 .85-1 .86-1 .85.4.48.4.5.79 1c.51.66 1 1.31 1.46 1.93q1.38 1.89 2.47 3.56a64.35 64.35 0 0 1 3.37 5.69c.79 1.55 1.29 2.73 1.6 3.51s.44 1.18.44 1.18a22.32 22.32 0 0 1 .74 2.61 13.87 13.87 0 0 1 .28 2.5v.14H109z"/><path class="cls-8" d="M70.1 100.56a41.54 41.54 0 0 1-4.64-6 78.73 78.73 0 0 1-4.95-9C59 82.45 57.68 79.24 56.44 76l-.12-.33-.37-1c-.33-.88-.82-2.21-1.43-4s-1.35-4-2.17-6.74c-.41-1.35-.84-2.83-1.28-4.42-.22-.8-.45-1.62-.67-2.48l-.33-1.3c-.07-.26-.13-.52-.2-.79l-.2-.51-1.2.27-1.28.3-1.28.29-1.27.3c.11.5.23 1 .34 1.42s.24.91.35 1.35q.35 1.32.69 2.55c.45 1.64.89 3.15 1.31 4.54a190.645 190.645 0 0 0 3.7 11.04c.17.46.3.8.39 1l.13.34c1.28 3.36 2.67 6.69 4.22 10a87.27 87.27 0 0 0 5.29 9.59 54 54 0 0 0 3.28 4.52c.47.58 1 1.14 1.47 1.7 0 0 .58 1.35 1.51.78.46-.28 3.35-1.84 3.85-2.28s-.8-1.31-1.07-1.58z"/><path class="cls-9" d="M93.74 101.35a29 29 0 0 0 1.82-5.84c.24-1.18.42-2.36.56-3.54 0-.43.33-1.45-.19-1.55-.85-.17-4.86-.43-4.86-.43l-.09.79-.07.56c-.13 1-.28 2.07-.48 3.08A24.2 24.2 0 0 1 89 99.23a16.69 16.69 0 0 1-1.11 2.1 11.55 11.55 0 0 1-1.4 1.75 8.63 8.63 0 0 1-3.61 2.24 10 10 0 0 1-2.25.44l-1.43.23-1.42-.17-.17 4.54 3 .65a15 15 0 0 0 3.84-.69 13.78 13.78 0 0 0 5.76-3.57 16.27 16.27 0 0 0 2.06-2.59 20.06 20.06 0 0 0 1.47-2.81z"/><path class="cls-10" d="M80.58 105.76a9.94 9.94 0 0 1-5.22-1.11 6.64 6.64 0 0 1-1.62-1.11c-.44-.41-1-1.08-1.63-1s-1.48 1-2 1.33-1.75.85-2.12 1.42.11.75.57 1.12a14.29 14.29 0 0 0 1.25.89 16.69 16.69 0 0 0 10.77 3.7z"/><path class="cls-11" d="M96.35 89.66c.11-1.46.16-2.91.17-4.36v-1.22c0-.81 0-2-.12-3.64s-.24-3.61-.52-6c-.14-1.2-.32-2.49-.53-3.88q-.16-1-.36-2.16l-.21-1.13-.11-.59c0-.2-.09-.41-.13-.61l-1.28.28-1.26.28-1.28.28-1.28.28.11.52.11.54c.06.37.13.72.19 1.07.13.7.24 1.38.34 2 .2 1.32.37 2.55.5 3.69.27 2.27.41 4.17.5 5.68s.1 2.65.11 3.4v1.14c0 1.34 0 2.68-.15 4-.06.71-.14 1.42-.22 2.12.16-.39 2.89.11 5.2.62.09-.76.17-1.53.22-2.31z"/><path class="cls-12" d="M60.16 105a14.66 14.66 0 0 1-2-.16 12.81 12.81 0 0 1-6.07-2.73 15 15 0 0 1-4-5.54 29.18 29.18 0 0 1-2-7.12 52.41 52.41 0 0 1-.59-7.34v-2.5h-5.21v2.53a57.88 57.88 0 0 0 .65 8.16 34.49 34.49 0 0 0 2.39 8.42 22.73 22.73 0 0 0 2.24 4 18.32 18.32 0 0 0 3.19 3.46 17.64 17.64 0 0 0 4 2.52 19.71 19.71 0 0 0 4.52 1.3 18.32 18.32 0 0 0 2.87.24z"/><path class="cls-13" d="M45.52 81.8c0-1.35 0-2.71.08-4.08 0 0 0-.46.07-1.4s.16-2.35.36-4.23.51-4.22 1-7c.24-1.4.52-2.92.86-4.54.17-.81.36-1.65.56-2.51.1-.43.21-.87.32-1.31l.16-.67c.06-.21.12-.43.17-.65L47.83 55l-1.26-.35-1.26-.35-1.26-.3c-.07.25-.14.5-.2.74l-.18.71-.33 1.38c-.21.91-.41 1.78-.58 2.63-.36 1.69-.66 3.27-.91 4.73-.5 2.93-.82 5.38-1 7.35S40.51 75 40.44 76s-.08 1.5-.08 1.5c-.06 1.44-.09 2.9-.08 4.36v.29h5.24c.01-.15 0-.24 0-.35z"/><path class="cls-14" d="M75.52 102.55a47.83 47.83 0 0 0 4.9-6.3 75.2 75.2 0 0 0 3.92-6.77l.17-.33.5-1c.44-.89 1.09-2.24 1.89-4.06s1.75-4.1 2.77-6.88q.78-2.08 1.59-4.55c.26-.82.53-1.67.8-2.56.14-.45.27-.9.41-1.37l.2-.7.2-.74L91.6 67l-1.27-.33-1.27-.33-1.27-.34c-.06.21-.11.43-.17.64l-.19.66c-.13.44-.26.87-.38 1.3-.26.85-.52 1.66-.78 2.45-.51 1.58-1 3-1.51 4.37-1 2.67-1.89 4.86-2.65 6.58s-1.38 3-1.8 3.85c-.2.42-.36.73-.47.94l-.16.32A70.79 70.79 0 0 1 76 93.37 42.39 42.39 0 0 1 71.7 99a23 23 0 0 1-5.21 4.28 12.58 12.58 0 0 1-5.93 1.72H59.1l-1.1-.17-.67 5.2 2.87.24h.56a16.67 16.67 0 0 0 4.39-.73 19.86 19.86 0 0 0 4-1.75 27.79 27.79 0 0 0 6.37-5.24z"/><path class="cls-15" d="M226.35 76.56c0 19.09-11.66 32-29.2 32-18 0-29.82-12.9-29.82-32V45.65a2.89 2.89 0 0 1 2.89-2.89h5.27a2.88 2.88 0 0 1 2.88 2.89v30.91c0 12.9 7.43 21.36 18.78 21.36 10.84 0 18.16-8.46 18.16-21.36V45.65a2.89 2.89 0 0 1 2.89-2.89h5.27a2.88 2.88 0 0 1 2.88 2.89z"/><path class="cls-16" d="M287.38 76.15v28.07a2.89 2.89 0 0 1-2.88 2.89h-5.06a2.89 2.89 0 0 1-2.89-2.89v-25.9c0-8.36-4.85-13.93-12.18-13.93-9.18 0-15.27 6.19-15.27 19.09v20.74a2.89 2.89 0 0 1-2.89 2.89h-5a2.89 2.89 0 0 1-2.89-2.89V58.81a2.88 2.88 0 0 1 2.89-2.88h5a2.88 2.88 0 0 1 2.89 2.88v3.41c4.13-4.95 10.12-7.74 17.75-7.74 12.28 0 20.53 8.87 20.53 21.67z"/><path class="cls-17" d="M312.3 40.55a6.5 6.5 0 0 1-6.81 6.6c-4 0-6.91-2.78-6.91-6.6a6.86 6.86 0 0 1 13.72 0zm-12.18 63.67V58.81a2.89 2.89 0 0 1 2.88-2.88h5a2.88 2.88 0 0 1 2.88 2.88v45.41a2.89 2.89 0 0 1-2.88 2.89h-5a2.9 2.9 0 0 1-2.88-2.89z"/><path class="cls-18" d="M378.5 81.52c0 16.2-12 27-25.38 27-7.74 0-14.14-2.68-18.58-7.33v20.54a2.89 2.89 0 0 1-2.88 2.89h-5a2.89 2.89 0 0 1-2.89-2.89V58.81a2.88 2.88 0 0 1 2.89-2.88h5a2.88 2.88 0 0 1 2.88 2.88v3c4.44-4.65 10.84-7.33 18.58-7.33 13.41 0 25.38 10.94 25.38 27.04zm-10.42 0c0-10.74-7.33-17.55-16.72-17.55a17.05 17.05 0 0 0-16.82 17.55c0 10.83 8.36 17.54 16.82 17.54 9.39 0 16.72-6.71 16.72-17.54z"/><path class="cls-19" d="M439.65 81.52c0 15.89-12.27 26.82-27.34 26.82s-27.55-10.93-27.55-26.82 12.38-26.73 27.55-26.73 27.34 10.84 27.34 26.73zm-10.42 0c0-10.63-8.15-17.55-16.92-17.55-9 0-17 6.92-17 17.55s8.05 17.54 17 17.54c8.77 0 16.92-6.92 16.92-17.54z"/><path class="cls-20" d="M452.69 91.68a2.9 2.9 0 0 1 3.31 1.81c1.7 4.39 6.46 6.29 12.22 6.29 6.19 0 10.11-2.79 10.11-6.81 0-3.1-2.17-5.06-6.91-6.09l-11.15-2.27c-8.87-2-13.93-6.71-13.93-13.93 0-9.49 7.95-16.2 20.23-16.2 10.19 0 17.52 4.65 20.5 11.47a2.88 2.88 0 0 1-2.07 4l-4.49.95a2.88 2.88 0 0 1-3.25-1.71c-1.59-3.7-5.46-6.09-11-6.09-6.3 0-9.08 3.09-9.08 6.7 0 2.89 1.65 4.75 6.19 5.78l12.17 2.68c8.24 1.74 13.3 6.56 13.3 13.74 0 10.73-8.77 16.51-21.57 16.51-10.23 0-19.14-3.87-21.88-12a2.9 2.9 0 0 1 2.15-3.74z"/></svg>